<?xml version="1.0" encoding="UTF-8"?>
<svg width="916px" height="916px" viewBox="0 0 916 916" version="1.1" xmlns="http://www.w3.org/2000/svg" xmlns:xlink="http://www.w3.org/1999/xlink">
    <!-- Generator: Sketch 46.2 (44496) - http://www.bohemiancoding.com/sketch -->
    <title>Barista</title>
    <desc>Created with Sketch.</desc>
    <defs>
        <rect id="path-1" x="0" y="0" width="387" height="209" rx="38"></rect>
        <circle id="path-3" cx="14" cy="14" r="14"></circle>
        <circle id="path-4" cx="14" cy="14" r="14"></circle>
        <path d="M192.298782,19.9140129 L191.82525,31.6989036 C194.014817,29.5431965 196.302022,27.4208675 198.66619,25.3780656 C206.209114,18.8604669 213.669398,13.8882991 220.905835,11.0735987 C230.922132,7.17763746 240.222016,7.59696509 247.794262,13.5728172 C257.59802,21.3097305 263.337566,38.0642119 266.617467,61.6331969 C267.948718,71.199409 268.77749,81.3903921 269.203264,91.7045234 C269.486771,98.5723196 269.557656,104.521746 269.510034,109.038841 C269.505456,109.473084 269.500791,109.776803 269.498033,109.911449 C269.495305,110.094977 269.488091,110.423892 269.474393,110.888618 C269.452056,111.646397 269.419235,112.520652 269.373922,113.501833 C269.245232,116.288399 269.042434,119.386559 268.749242,122.720352 C267.910079,132.262209 266.511747,141.812751 264.412152,150.780908 C260.825748,166.099791 255.575571,178.188407 248.046782,185.943495 C239.402187,194.847929 228.291286,197.372346 215.581333,192.666746 L216.173782,203.577603 C217.026129,219.274859 204.972579,232 189.232221,232 L39.9794611,232 C24.247701,232 12.9355648,219.32301 14.7104045,203.708843 L28.0586462,86.2775801 C28.0586462,86.2775801 33.4374542,52.4837122 18.2436081,29.1569028 C14.1284324,22.8389555 3.45822883,14.8511629 3.45822883,14.8511629 C-0.397559369,11.7085655 0.193209201,7.75089973 4.81671501,5.94178563 C4.81671501,5.94178563 12.4185006,2.27373675e-13 53.7963303,2.27373675e-13 L173.167211,2.27373675e-13 C184.175209,2.27373675e-13 192.740811,8.91315167 192.298782,19.9140129 Z M202.464874,49.16802 C201.514759,50.2796425 200.666893,51.3092854 199.943599,52.4085626 L203.576739,66.5901759 C209.82262,90.9703675 215.903203,131.235449 217.157037,156.50327 L217.962703,172.739414 C218.258853,172.921647 218.558057,173.098332 218.860322,173.269437 C227.664986,178.253528 233.894713,177.299072 239.060273,171.477949 C243.84168,166.089732 247.598821,156.625448 250.233682,144.312751 C251.877519,136.631107 252.986152,128.347237 253.652709,120.055376 C253.886437,117.147838 254.047837,114.450276 254.149791,112.035059 C254.210315,110.601281 254.237509,109.591999 254.244921,109.051064 C254.247064,108.933339 254.250501,108.688542 254.254012,108.324214 C254.292313,104.349577 254.234758,99.0646781 254.004126,92.9524318 C253.658692,83.7976881 252.987542,74.7689237 251.917966,66.3604057 C249.510585,47.434679 245.314788,34.0349629 239.834202,29.303125 C236.617216,26.5256377 232.462318,26.3206801 227.062535,28.6184759 C222.221569,30.6784758 216.836786,34.604801 211.286883,39.851196 C208.160538,42.8065697 205.183279,45.9875183 202.464874,49.16802 Z" id="path-5"></path>
    </defs>
    <g id="Page-1" stroke="none" stroke-width="1" fill="none" fill-rule="evenodd">
        <g id="Barista">
            <path d="M109.469896,621.305019 C109.469896,605.27987 122.454239,592.28892 138.479887,592.28892 L290.883402,592.28892 C306.905178,592.28892 319.893393,605.276347 319.893393,621.305019 C319.893393,637.330168 306.90905,650.321118 290.883402,650.321118 L138.479887,650.321118 C122.458111,650.321118 109.469896,637.333691 109.469896,621.305019 Z M685.444184,170.016099 C685.444184,153.99095 698.427128,141 714.457891,141 L752.697096,141 C768.720925,141 781.710804,153.987426 781.710804,170.016099 C781.710804,186.041248 768.727859,199.032198 752.697096,199.032198 L714.457891,199.032198 C698.434063,199.032198 685.444184,186.044771 685.444184,170.016099 Z M319.69152,442.065269 C320.115738,458.630633 307.021526,472.059514 290.451874,472.059514 L180.568782,472.059514 C163.995953,472.059514 150.561021,485.483161 150.561021,502.058951 L150.561021,505.816065 C150.561021,522.384297 163.992664,535.859151 180.555651,535.912975 L703.650048,537.612871 C720.215625,537.666704 733.644678,524.284734 733.644678,507.71507 L733.644678,500.159946 C733.644678,483.594013 720.204356,470.164672 703.643479,470.164672 L692.078227,470.164672 C675.509022,470.164672 662.077028,456.73541 662.077028,440.165436 L662.077028,437.384389 C662.077028,420.816269 675.50505,407.385154 692.084328,407.385154 L824.116448,407.385154 C840.689022,407.385154 854.123748,393.961145 854.123748,377.393561 L854.123748,371.725916 C854.123748,355.162017 840.690576,341.734323 824.117882,341.734323 L820.235841,341.734323 C803.664058,341.734323 790.229974,328.308713 790.229974,311.739049 L790.229974,304.183925 C790.229974,287.617993 776.80184,274.188651 760.236199,274.188651 L680.508942,274.188651 C663.943838,274.188651 650.515167,260.763041 650.515167,244.193376 L650.515167,236.638252 C650.515167,220.07232 637.084695,206.642978 620.521535,206.642978 L621.726947,206.642978 C605.161921,206.642978 591.733314,193.201925 591.733314,176.633659 L591.733314,171.015106 C591.733314,154.441417 578.298428,141.005787 561.72761,141.005787 L255.312004,141.005787 C238.740311,141.005787 225.306299,154.44684 225.306299,171.015106 L225.306299,176.633659 C225.306299,193.207348 211.879316,206.642978 195.308971,206.642978 L118.997328,206.642978 C102.430261,206.642978 89,220.068588 89,236.638252 L89,244.193376 C89,260.759309 102.425557,274.188651 119.004082,274.188651 L385.302217,274.188651 C401.873014,274.188651 415.306299,287.629703 415.306299,304.19797 L415.306299,309.816522 C415.306299,326.390211 401.884301,339.966176 385.305463,340.139518 L262.775347,341.420646 C246.206342,341.593885 232.425821,355.158332 231.995476,371.725916 L231.848259,377.393561 C231.41801,393.957461 244.501618,407.385154 261.078275,407.385154 L288.794356,407.385154 C305.367897,407.385154 319.14708,420.805352 319.571521,437.379399 L319.69152,442.065269 Z" id="BG" fill="#00C7B3" opacity="0.066576087"></path>
            <g id="Coffee-Machine" transform="translate(263.000000, 227.000000)">
                <g id="Group-3">
                    <rect id="Midle" fill="#D8DFE3" x="56" y="209" width="276" height="233"></rect>
                    <rect id="Bottom" fill="#00C7B3" x="0" y="442" width="387" height="42" rx="21"></rect>
                    <g id="Top">
                        <mask id="mask-2" fill="white">
                            <use xlink:href="#path-1"></use>
                        </mask>
                        <use id="Rectangle" fill="#00C7B3" xlink:href="#path-1"></use>
                        <path d="M-11.6663753,135.711029 C-10.4788843,123.620369 0.324141305,113.584594 12.4855343,113.294959 L141.793725,110.215361 C141.793725,110.215361 159.735989,103.330855 174.473997,103.330855 C189.212006,103.330855 208.421485,110.954489 208.421485,110.954489 L208.421485,160.954489 L-14.5759063,165.334962 C-14.5759063,165.334962 -68.1434267,155.342054 -54.711464,134.555463 C-41.2795014,113.768871 -11.6663753,135.711029 -11.6663753,135.711029 L-11.6663753,135.711029 Z" id="Rectangle-5" fill-opacity="0.469999999" fill="#D8DFE4" style="mix-blend-mode: multiply;" mask="url(#mask-2)" transform="translate(75.774381, 134.332908) rotate(49.000000) translate(-75.774381, -134.332908) "></path>
                        <g id="Valve" mask="url(#mask-2)">
                            <g transform="translate(139.000000, 34.000000)">
                                <path d="M55,110 C24.6243388,110 0,85.3756612 0,55 C0,24.6243388 24.6243388,0 55,0 C85.3756612,0 110,24.6243388 110,55 C110,85.3756612 85.3756612,110 55,110 Z" id="Oval" fill="#038C7E" fill-rule="nonzero"></path>
                                <path d="M55,97 C78.1959595,97 97,78.1959595 97,55 C97,31.8040405 78.1959595,13 55,13 C31.8040405,13 13,31.8040405 13,55 C13,78.1959595 31.8040405,97 55,97 Z" id="Path" fill="#FFFFFF" fill-rule="evenodd"></path>
                                <path d="M87.5,55 C87.5,37.0507456 72.9492544,22.5 55,22.5 C37.0507456,22.5 22.5,37.0507456 22.5,55 C22.5,56.3807119 23.6192881,57.5 25,57.5 C26.3807119,57.5 27.5,56.3807119 27.5,55 C27.5,39.8121694 39.8121694,27.5 55,27.5 C70.1878306,27.5 82.5,39.8121694 82.5,55 C82.5,56.3807119 83.6192881,57.5 85,57.5 C86.3807119,57.5 87.5,56.3807119 87.5,55 Z" id="Oval" fill="#88A1AD" fill-rule="nonzero"></path>
                                <path d="M55,64 C59.9705627,64 64,59.9705627 64,55 C64,50.0294373 57.388206,35.5066853 57.388206,35.5066853 C56.0692363,32.465427 53.9143897,32.4666664 52.611794,35.5066853 C52.611794,35.5066853 46,50.0294373 46,55 C46,59.9705627 50.0294373,64 55,64 Z" id="Oval-2" fill="#64818D" fill-rule="evenodd"></path>
                                <circle id="Oval-3" fill="#F5A623" fill-rule="evenodd" cx="55" cy="88" r="5"></circle>
                                <circle id="Oval-3" fill="#86B400" fill-rule="evenodd" cx="69" cy="84" r="5"></circle>
                                <circle id="Oval-3" fill="#F53B36" fill-rule="evenodd" cx="40" cy="84" r="5"></circle>
                            </g>
                        </g>
                    </g>
                </g>
                <g id="Handle" transform="translate(139.000000, 209.000000)">
                    <path d="M0,0 L110,0 L110,22.0074838 C110,31.3921914 102.395854,39 92.9934197,39 L17.0065803,39 C7.61410537,39 0,31.3878249 0,22.0074838 L0,0 Z" id="Rectangle-2" fill="#BDCACF"></path>
                    <path d="M29,39 L81,39 L81,59.9988553 C81,64.4177655 77.4258294,68 73.0031624,68 L36.9968376,68 C32.5803062,68 29,64.4149448 29,59.9988553 L29,39 Z" id="Rectangle-2" fill="#88A1AD"></path>
                    <rect id="Rectangle-2" fill="#64818D" x="81" y="48" width="37" height="11"></rect>
                    <path d="M100,48.9944363 C100,45.1315158 103.138421,42 106.991668,42 L150.501696,42 C156.852034,42 162,47.1473289 162,53.5 L162,53.5 C162,59.8512746 156.847072,65 150.501696,65 L106.991668,65 C103.130277,65 100,61.8741812 100,58.0055637 L100,48.9944363 Z" id="Rectangle-2-Copy" fill="#EC007C"></path>
                    <rect id="Rectangle-3" fill="#B50461" x="112" y="42" width="2" height="23"></rect>
                </g>
                <g id="Button" transform="translate(239.000000, 154.000000)">
                    <g id="Oval-4">
                        <use fill="#D8DFE3" fill-rule="evenodd" xlink:href="#path-3"></use>
                        <circle stroke="#028C7E" stroke-width="5" cx="14" cy="14" r="16.5"></circle>
                    </g>
                    <circle id="Oval-4" fill="#88A1AD" cx="14" cy="10" r="4"></circle>
                </g>
                <g id="Button" transform="translate(309.000000, 154.000000)">
                    <g id="Oval-4">
                        <use fill="#D8DFE3" fill-rule="evenodd" xlink:href="#path-4"></use>
                        <circle stroke="#028C7E" stroke-width="5" cx="14" cy="14" r="16.5"></circle>
                    </g>
                    <circle id="Oval-4" fill="#88A1AD" cx="14" cy="10" r="4"></circle>
                </g>
                <path d="M332.5,442 L367.507613,442 C378.549104,442 387.5,450.958538 387.5,462.00058 L387.5,463.99942 C387.5,475.045435 378.555171,484 367.498298,484 L194,484 L194,0 L349.500097,0 C370.486864,0 387.5,17.0147321 387.5,37.9998074 L387.5,171.000193 C387.5,191.986907 370.481544,209 349.500097,209 L332.5,209 L332.5,442 Z" id="Shadow" fill="#D8DFE3" opacity="0.7432518" style="mix-blend-mode: multiply;"></path>
            </g>
            <g id="Pot" transform="translate(314.262157, 445.661386) scale(-1, 1) rotate(-48.000000) translate(-314.262157, -445.661386) translate(115.762157, 299.161386)">
                <g id="Pot-mask" transform="translate(127.000000, 61.000000)">
                    <mask id="mask-6" fill="white">
                        <use xlink:href="#path-5"></use>
                    </mask>
                    <use id="Path-3" fill="#D10072" xlink:href="#path-5"></use>
                    <rect id="Rectangle-6" fill="#D8DFE4" style="mix-blend-mode: multiply;" opacity="0.74" mask="url(#mask-6)" x="-30" y="-14" width="160" height="276"></rect>
                </g>
                <path d="M34.3078179,15.4213122 C34.3078179,15.4213122 76.1125461,62.1706857 83.4295261,153.538358 C83.8294953,158.532803 130.950353,141.985818 130.23651,139.118186 C101.202997,22.4854508 34.3078179,15.4213122 34.3078179,15.4213122 Z" id="Milk" fill="#FBFAEE" transform="translate(82.276179, 84.946369) scale(-1, 1) rotate(-40.000000) translate(-82.276179, -84.946369) "></path>
            </g>
            <g id="Espresso-Logo" transform="translate(395.000000, 495.000000)">
                <rect id="Rectangle-7" fill="#FFFFFF" x="26" y="33" width="71" height="20"></rect>
                <path d="M35.3281243,18.6168728 C43.4070371,15.078116 52.4514418,13.0970318 62,13.0970318 C71.8326824,13.0970318 81.1307619,15.1977672 89.3904804,18.9368938 L99.5224668,0.917886789 C100.010839,0.0493513525 101.10719,-0.256773468 101.971233,0.234137866 C102.835277,0.7250492 103.139819,1.82709855 102.651446,2.69563399 L92.631433,20.5155048 C111.366339,30.3052462 124,48.7985392 124,70 L0,70 C0,48.5367189 12.9476175,29.8489059 32.0654272,20.1568127 L22.2471045,2.69563399 C21.7587319,1.82709855 22.0632736,0.7250492 22.9273174,0.234137866 C23.7913612,-0.256773468 24.8877113,0.0493513525 25.3760839,0.917886789 L35.3281243,18.6168728 Z M90.3043478,47.4194571 C87.5749406,47.4194571 85.3623188,45.1953333 85.3623188,42.4517376 C85.3623188,39.708142 87.5749406,37.4840182 90.3043478,37.4840182 C93.0337551,37.4840182 95.2463768,39.708142 95.2463768,42.4517376 C95.2463768,45.1953333 93.0337551,47.4194571 90.3043478,47.4194571 Z M33.6956522,47.4194571 C30.9662449,47.4194571 28.7536232,45.1953333 28.7536232,42.4517376 C28.7536232,39.708142 30.9662449,37.4840182 33.6956522,37.4840182 C36.4250594,37.4840182 38.6376812,39.708142 38.6376812,42.4517376 C38.6376812,45.1953333 36.4250594,47.4194571 33.6956522,47.4194571 Z" id="Oval-5" fill="#936F57"></path>
                <g id="Group-4" transform="translate(0.000000, 79.000000)" fill="#FFFFFF">
                    <path d="M0,0 L125.748503,0 C125.748503,0 122.813892,94 64.2215569,94 C5.62922221,94 0,0 0,0 Z" id="Rectangle-4"></path>
                    <path d="M116.317365,76.9904762 C97.7149598,76.9904762 82.6347305,61.9600356 82.6347305,43.4190476 C82.6347305,24.8780596 97.7149598,9.84761905 116.317365,9.84761905 C134.919771,9.84761905 150,24.8780596 150,43.4190476 C150,61.9600356 134.919771,76.9904762 116.317365,76.9904762 Z M116.317365,63.5619048 C127.478809,63.5619048 136.526946,54.5436404 136.526946,43.4190476 C136.526946,32.2944548 127.478809,23.2761905 116.317365,23.2761905 C105.155922,23.2761905 96.1077844,32.2944548 96.1077844,43.4190476 C96.1077844,54.5436404 105.155922,63.5619048 116.317365,63.5619048 Z" id="Path"></path>
                </g>
            </g>
        </g>
    </g>
</svg>